<?xml version="1.0" encoding="utf-8"?>
<!-- Generator: Adobe Illustrator 16.0.0, SVG Export Plug-In . SVG Version: 6.00 Build 0)  -->
<!DOCTYPE svg PUBLIC "-//W3C//DTD SVG 1.1//EN" "http://www.w3.org/Graphics/SVG/1.1/DTD/svg11.dtd">
<svg class="send-icon" version="1.1" id="Capa_1" xmlns="http://www.w3.org/2000/svg" xmlns:xlink="http://www.w3.org/1999/xlink" x="0px" y="0px"
	 width="451.846px" height="451.847px" viewBox="0 0 451.846 451.847" enable-background="new 0 0 451.846 451.847"
	 xml:space="preserve" fill="white">
<g>
	<path d="M203.561,238.827L91.494,350.89c-7.128,7.132-18.687,7.132-25.812,0c-7.126-7.127-7.126-18.685,0-25.809l99.162-99.159
		l-99.159-99.156c-7.126-7.129-7.126-18.686,0-25.812c7.126-7.128,18.684-7.128,25.812,0L203.565,213.02
		c3.562,3.565,5.342,8.232,5.342,12.901C208.907,230.593,207.124,235.263,203.561,238.827z"/>
</g>
<g>
	<path d="M299.428,238.826L187.361,350.89c-7.128,7.131-18.687,7.131-25.812,0c-7.126-7.127-7.126-18.686,0-25.809l99.162-99.159
		l-99.159-99.156c-7.126-7.129-7.126-18.686,0-25.812c7.126-7.128,18.684-7.128,25.812,0L299.432,213.02
		c3.562,3.565,5.342,8.232,5.342,12.901C304.773,230.593,302.99,235.263,299.428,238.826z"/>
</g>
<g>
	<path d="M395.096,238.826L283.029,350.89c-7.129,7.131-18.688,7.131-25.812,0c-7.126-7.127-7.126-18.686,0-25.809l99.162-99.159
		l-99.159-99.156c-7.126-7.129-7.126-18.686,0-25.812c7.126-7.128,18.684-7.128,25.812,0L395.1,213.02
		c3.562,3.565,5.342,8.232,5.342,12.901C400.441,230.593,398.658,235.263,395.096,238.826z"/>
</g>
</svg>
